<?xml version="1.0" standalone="no"?>
<!DOCTYPE svg PUBLIC "-//W3C//DTD SVG 20010904//EN"
 "http://www.w3.org/TR/2001/REC-SVG-20010904/DTD/svg10.dtd">
<svg version="1.0" xmlns="http://www.w3.org/2000/svg"
 width="335.000000pt" height="335.000000pt" viewBox="0 0 335.000000 335.000000"
 preserveAspectRatio="xMidYMid meet">

<g transform="translate(0.000000,335.000000) scale(0.100000,-0.100000)"
fill="#000000" stroke="none">
<path d="M260 3296 c-87 -25 -142 -62 -190 -131 -65 -94 -61 0 -60 -1492 0
-1216 2 -1358 16 -1401 33 -94 95 -161 191 -203 l48 -22 1409 2 1410 2 62 30
c69 32 119 83 156 158 l23 46 0 1390 0 1390 -24 47 c-46 94 -139 166 -239 187
-81 17 -2741 14 -2802 -3z m2271 -207 c36 -11 121 -50 129 -59 3 -3 21 -16 40
-29 44 -30 81 -74 72 -87 -6 -9 -176 -136 -330 -248 -28 -21 -50 -41 -47 -45
2 -5 88 -68 189 -142 102 -74 188 -140 190 -146 13 -33 -113 -132 -219 -173
-85 -33 -234 -33 -320 0 -149 57 -264 181 -314 339 -19 60 -14 207 11 275 60
172 199 295 368 326 54 10 184 4 231 -11z m-756 -524 l25 -24 0 -654 c0 -647
0 -655 -21 -681 -20 -26 -22 -26 -148 -26 -98 0 -131 3 -149 16 l-22 15 0 674
0 674 22 15 c17 12 50 16 146 16 117 0 124 -1 147 -25z m-457 -365 l22 -21 0
-479 0 -479 -22 -21 c-19 -18 -35 -20 -143 -20 -93 0 -126 4 -143 16 l-22 15
0 489 0 489 22 15 c17 12 50 16 143 16 108 0 124 -2 143 -20z m912 -182 c19
-21 20 -33 20 -404 0 -474 15 -434 -168 -434 -115 0 -128 2 -149 22 l-23 21 0
390 c0 349 2 392 17 409 14 16 33 18 149 18 124 0 135 -1 154 -22z m-1356
-194 c14 -13 16 -56 16 -310 0 -363 14 -334 -165 -334 -179 0 -165 -29 -165
332 0 257 2 294 17 310 14 16 33 18 149 18 107 0 136 -3 148 -16z m1804 -132
c9 -12 12 -77 12 -244 0 -286 11 -268 -162 -268 -178 0 -168 -16 -168 272 0
182 3 232 14 243 27 27 282 25 304 -3z m-2225 -792 c10 -30 41 -128 70 -218
l53 -162 53 167 c29 93 60 191 70 218 l17 50 62 3 c54 3 62 1 62 -15 0 -10
-30 -104 -66 -208 -36 -105 -77 -224 -91 -265 -14 -41 -30 -81 -35 -87 -6 -8
-35 -13 -73 -13 -38 0 -66 5 -72 13 -6 6 -26 59 -46 117 -20 58 -59 170 -87
250 -66 186 -69 197 -62 205 3 3 33 5 67 3 l60 -3 18 -55z m585 -215 c1 -148
0 -280 -3 -293 -5 -21 -10 -23 -63 -20 l-57 3 -3 280 c-1 154 0 286 3 293 3 9
22 12 62 10 l58 -3 3 -270z m502 229 c0 -42 -10 -60 -127 -232 -71 -102 -130
-190 -132 -195 -1 -4 57 -7 130 -6 l134 1 0 -53 0 -54 -215 0 -215 0 -3 42
c-3 35 3 52 29 90 18 27 35 50 39 53 3 3 34 48 69 100 36 52 77 111 93 131 15
20 28 39 28 43 0 3 -55 7 -122 8 l-123 3 -3 44 c-5 74 -16 71 213 71 l205 0 0
-46z m200 -160 c0 -258 6 -273 111 -274 41 0 63 5 80 19 24 19 24 23 29 238
l5 218 57 3 56 3 4 -63 c10 -158 8 -325 -6 -383 -24 -100 -104 -155 -228 -155
-101 0 -171 37 -209 112 -17 33 -19 61 -19 263 l0 225 60 0 60 0 0 -206z m747
121 c18 -44 52 -136 77 -205 24 -69 56 -156 70 -195 38 -103 37 -105 -33 -105
-66 0 -73 6 -92 68 l-12 42 -108 0 -109 0 -6 -27 c-4 -16 -13 -40 -21 -55 -12
-26 -18 -28 -73 -28 -65 0 -69 5 -49 57 13 34 97 269 146 408 19 55 39 106 45
113 8 9 31 12 72 10 l61 -3 32 -80z m361 -157 l2 -237 118 -3 117 -3 3 -38 c5
-65 0 -67 -188 -67 -144 0 -169 2 -174 16 -8 21 -8 538 0 559 5 13 18 15 63
13 l56 -3 3 -237z"/>
<path d="M2353 700 l-30 -100 67 0 67 0 -32 95 c-17 52 -34 97 -36 100 -3 2
-19 -40 -36 -95z"/>
</g>
</svg>
